<svg width="167" height="27" viewBox="0 0 167 27" fill="none" xmlns="http://www.w3.org/2000/svg">
<path d="M166.179 25.4282C166.438 25.4928 166.567 25.6545 166.567 25.9131C166.567 26.2579 166.395 26.4304 166.05 26.4304H161.33C161.201 26.4304 161.082 26.3873 160.974 26.301C160.888 26.1933 160.845 26.0748 160.845 25.9454C160.845 25.6868 160.974 25.5252 161.233 25.4605C161.535 25.3959 161.782 25.3096 161.976 25.2019C162.17 25.0726 162.321 24.8894 162.429 24.6523C162.537 24.4152 162.601 24.1027 162.623 23.7148C162.666 23.3268 162.688 22.8419 162.688 22.26V15.1477C162.688 12.4968 162.019 11.1713 160.683 11.1713C160.338 11.1713 159.983 11.2683 159.616 11.4623C159.272 11.6563 158.948 11.9257 158.647 12.2705C158.366 12.5938 158.129 12.9925 157.935 13.4666C157.741 13.9192 157.644 14.415 157.644 14.9538V22.26C157.644 22.8419 157.655 23.3268 157.677 23.7148C157.72 24.1027 157.795 24.4152 157.903 24.6523C158.011 24.8894 158.162 25.0726 158.356 25.2019C158.55 25.3096 158.797 25.3959 159.099 25.4605C159.358 25.5252 159.487 25.6868 159.487 25.9454C159.487 26.0748 159.433 26.1933 159.325 26.301C159.239 26.3873 159.131 26.4304 159.002 26.4304H154.153C154.024 26.4304 153.905 26.3873 153.797 26.301C153.711 26.1933 153.668 26.0748 153.668 25.9454C153.668 25.6653 153.797 25.5036 154.056 25.4605C154.358 25.3743 154.595 25.2773 154.767 25.1696C154.94 25.0402 155.069 24.8678 155.155 24.6523C155.263 24.4152 155.328 24.1135 155.349 23.7471C155.371 23.3592 155.381 22.8635 155.381 22.26V13.5313C155.381 13.1218 155.338 12.7878 155.252 12.5291C155.166 12.2705 155.058 12.0657 154.929 11.9149C154.799 11.764 154.649 11.6563 154.476 11.5916C154.325 11.5269 154.174 11.4838 154.024 11.4623C153.679 11.3761 153.539 11.1713 153.603 10.848C153.668 10.6541 153.808 10.5355 154.024 10.4924C154.325 10.4278 154.746 10.3092 155.284 10.1368C155.845 9.94285 156.47 9.63034 157.159 9.19929C157.267 9.09153 157.397 9.09153 157.547 9.19929C157.612 9.2855 157.644 9.38249 157.644 9.49025V11.43C157.644 11.5377 157.698 11.6132 157.806 11.6563C157.935 11.6994 158.032 11.667 158.097 11.5593C158.636 10.6972 159.175 10.0829 159.713 9.71655C160.274 9.3286 160.91 9.13463 161.621 9.13463C163.841 9.13463 164.951 11.1282 164.951 15.1154V22.26C164.951 22.8419 164.961 23.3268 164.983 23.7148C165.004 24.0812 165.058 24.3829 165.145 24.62C165.231 24.8355 165.349 25.0079 165.5 25.1372C165.673 25.245 165.899 25.342 166.179 25.4282Z" fill="#131325"/>
<path d="M148.142 26.8182C147.323 26.8182 146.558 26.6027 145.847 26.1717C145.136 25.7191 144.521 25.094 144.004 24.2966C143.487 23.4992 143.077 22.5616 142.776 21.484C142.474 20.3849 142.323 19.1779 142.323 17.8632C142.323 16.5701 142.463 15.3847 142.743 14.3071C143.045 13.2295 143.455 12.3135 143.972 11.5592C144.511 10.8049 145.157 10.223 145.912 9.81346C146.666 9.38241 147.496 9.16689 148.401 9.16689C149.22 9.16689 149.985 9.37163 150.696 9.78113C151.407 10.1906 152.022 10.7725 152.539 11.5269C153.056 12.2596 153.466 13.1648 153.767 14.2425C154.069 15.2985 154.22 16.4731 154.22 17.7663C154.22 19.081 154.069 20.2879 153.767 21.387C153.487 22.4862 153.078 23.4453 152.539 24.2643C152.022 25.0617 151.386 25.6867 150.632 26.1393C149.877 26.5919 149.047 26.8182 148.142 26.8182ZM147.884 10.2014C146.935 10.2014 146.17 10.7294 145.588 11.7855C145.028 12.82 144.748 14.2856 144.748 16.1822C144.748 16.5486 144.759 17.0443 144.78 17.6693C144.823 18.2943 144.888 18.9624 144.974 19.6736C145.082 20.3849 145.222 21.1069 145.394 21.8396C145.588 22.5509 145.825 23.2082 146.106 23.8117C146.407 24.3936 146.763 24.8677 147.172 25.2341C147.582 25.6005 148.067 25.7837 148.627 25.7837C149.619 25.7837 150.394 25.1695 150.955 23.941C151.515 22.691 151.795 20.9668 151.795 18.7684C151.795 18.3805 151.774 17.9063 151.731 17.346C151.688 16.7856 151.612 16.1929 151.504 15.5679C151.397 14.9214 151.246 14.2856 151.052 13.6605C150.879 13.014 150.642 12.4428 150.341 11.9471C150.06 11.4299 149.716 11.0096 149.306 10.6863C148.897 10.363 148.422 10.2014 147.884 10.2014Z" fill="#131325"/>
<path d="M140.174 4.57631C139.786 4.57631 139.462 4.40389 139.204 4.05905C138.945 3.69266 138.816 3.22929 138.816 2.66893C138.816 2.13012 138.945 1.67752 139.204 1.31114C139.484 0.944746 139.807 0.761551 140.174 0.761551C140.583 0.761551 140.917 0.944746 141.176 1.31114C141.434 1.67752 141.564 2.13012 141.564 2.66893C141.564 3.22929 141.434 3.69266 141.176 4.05905C140.917 4.40389 140.583 4.57631 140.174 4.57631ZM143.116 25.4928C143.396 25.5359 143.536 25.6868 143.536 25.9454C143.536 26.0747 143.482 26.1933 143.374 26.301C143.288 26.3872 143.18 26.4304 143.051 26.4304H137.62C137.49 26.4304 137.372 26.3872 137.264 26.301C137.178 26.1933 137.135 26.0747 137.135 25.9454C137.135 25.6868 137.275 25.5359 137.555 25.4928C137.921 25.4497 138.212 25.3743 138.428 25.2665C138.665 25.1588 138.837 24.9863 138.945 24.7493C139.074 24.5122 139.161 24.1889 139.204 23.7794C139.247 23.3699 139.268 22.8419 139.268 22.1953V13.5313C139.268 13.1218 139.225 12.7877 139.139 12.5291C139.053 12.2705 138.945 12.0657 138.816 11.9149C138.687 11.764 138.536 11.6562 138.363 11.5916C138.212 11.5269 138.062 11.4838 137.911 11.4623C137.63 11.4192 137.49 11.2575 137.49 10.9773C137.49 10.6972 137.63 10.5247 137.911 10.4601C138.212 10.417 138.633 10.3092 139.171 10.1368C139.732 9.94284 140.357 9.61955 141.047 9.16695C141.133 9.12385 141.208 9.11307 141.273 9.13462C141.445 9.17773 141.531 9.28549 141.531 9.45791V22.1307C141.531 22.7772 141.542 23.3053 141.564 23.7148C141.607 24.1243 141.682 24.4475 141.79 24.6846C141.919 24.9217 142.081 25.1049 142.275 25.2342C142.491 25.342 142.771 25.4282 143.116 25.4928Z" fill="#131325"/>
<path d="M137.799 21.6134C137.906 21.5918 137.993 21.6242 138.057 21.7104C138.143 21.775 138.176 21.8612 138.154 21.969C137.982 23.5208 137.562 24.7169 136.893 25.5575C136.247 26.398 135.449 26.8183 134.501 26.8183C133.553 26.8183 132.917 26.4195 132.594 25.6221C132.27 24.8031 132.109 23.6716 132.109 22.2276V11.0743C132.109 10.8372 131.99 10.7187 131.753 10.7187H131.301C131.107 10.7187 130.934 10.654 130.783 10.5247C130.654 10.3738 130.589 10.2014 130.589 10.0075C130.589 9.70573 130.719 9.49021 130.977 9.36089C131.257 9.21002 131.548 8.9945 131.85 8.71432C132.173 8.43414 132.464 8.13241 132.723 7.80912C133.003 7.46429 133.24 7.10868 133.434 6.74229C133.65 6.3759 133.801 6.02028 133.887 5.67545C133.93 5.54613 134.005 5.48148 134.113 5.48148C134.286 5.48148 134.372 5.56768 134.372 5.7401V9.16692C134.372 9.404 134.49 9.52253 134.727 9.52253H136.505C136.678 9.52253 136.818 9.58719 136.926 9.7165C137.034 9.82427 137.087 9.96436 137.087 10.1368C137.087 10.3092 137.034 10.4493 136.926 10.557C136.818 10.6648 136.678 10.7187 136.505 10.7187H134.727C134.49 10.7187 134.372 10.8372 134.372 11.0743V21.775C134.372 22.8957 134.426 23.6932 134.533 24.1673C134.663 24.6199 134.997 24.8462 135.536 24.8462C135.967 24.8462 136.355 24.5553 136.699 23.9734C137.044 23.3914 137.303 22.7018 137.475 21.9043C137.518 21.7104 137.626 21.6134 137.799 21.6134Z" fill="#131325"/>
<path d="M132.233 21.8396C132.233 22.443 132.211 23.0465 132.168 23.65C132.147 24.2534 132.05 24.7922 131.877 25.2664C131.726 25.719 131.479 26.0962 131.134 26.3979C130.789 26.6781 130.315 26.8182 129.711 26.8182C129.28 26.8182 128.892 26.6673 128.547 26.3656C128.224 26.0638 127.987 25.5681 127.836 24.8785C127.793 24.7276 127.707 24.6414 127.578 24.6198C127.448 24.5983 127.34 24.6414 127.254 24.7491C126.629 25.5897 126.026 26.15 125.444 26.4302C124.884 26.6888 124.345 26.8182 123.827 26.8182C122.987 26.8182 122.297 26.4733 121.758 25.7836C121.241 25.094 120.983 24.1349 120.983 22.9064C120.983 21.915 121.166 21.0637 121.532 20.3525C121.899 19.6197 122.34 19.0054 122.858 18.5097C123.052 18.3158 123.267 18.1326 123.504 17.9602C123.741 17.7662 124.021 17.5614 124.345 17.3459C124.69 17.1304 125.099 16.8825 125.573 16.6024C126.069 16.3222 126.651 16.0097 127.319 15.6648C127.599 15.514 127.739 15.2985 127.739 15.0183V13.4342C127.739 12.2704 127.534 11.419 127.125 10.8802C126.737 10.3199 126.241 10.0397 125.638 10.0397C125.077 10.0397 124.614 10.2229 124.248 10.5893C123.903 10.9557 123.73 11.3867 123.73 11.8824C123.73 12.2272 123.752 12.4859 123.795 12.6583C123.86 12.8307 123.892 13.1001 123.892 13.4665C123.892 13.8329 123.806 14.1777 123.633 14.501C123.483 14.8243 123.159 14.9859 122.664 14.9859C122.297 14.9859 121.974 14.8243 121.694 14.501C121.435 14.1777 121.306 13.7682 121.306 13.2725C121.306 12.5398 121.467 11.9147 121.791 11.3975C122.136 10.8587 122.545 10.4276 123.019 10.1043C123.515 9.75951 124.032 9.51166 124.571 9.36079C125.11 9.20992 125.573 9.13449 125.961 9.13449C126.715 9.13449 127.351 9.28536 127.869 9.58709C128.407 9.86727 128.838 10.2768 129.162 10.8156C129.334 11.0958 129.463 11.3652 129.55 11.6238C129.657 11.8824 129.733 12.1626 129.776 12.4643C129.819 12.7661 129.851 13.1217 129.873 13.5312C129.894 13.9407 129.905 14.4256 129.905 14.9859V22.1952C129.905 23.0573 129.97 23.6823 130.099 24.0702C130.228 24.4582 130.444 24.6522 130.746 24.6522C130.918 24.6522 131.058 24.5767 131.166 24.4259C131.295 24.2534 131.392 24.0379 131.457 23.7793C131.543 23.4991 131.597 23.1974 131.619 22.8741C131.662 22.5292 131.683 22.1952 131.683 21.8719C131.726 21.6995 131.802 21.6025 131.91 21.5809C132.082 21.5809 132.19 21.6672 132.233 21.8396ZM127.739 16.958C127.739 16.8071 127.675 16.6994 127.545 16.6347C127.437 16.57 127.319 16.57 127.19 16.6347C126.629 16.9149 126.112 17.2166 125.638 17.5399C125.185 17.8632 124.787 18.2296 124.442 18.6391C124.097 19.027 123.827 19.4796 123.633 19.9969C123.461 20.4926 123.375 21.0745 123.375 21.7426C123.375 22.734 123.547 23.4668 123.892 23.9409C124.258 24.3935 124.7 24.6198 125.218 24.6198C125.562 24.6198 125.886 24.5121 126.187 24.2965C126.511 24.0595 126.78 23.7685 126.996 23.4237C127.233 23.0788 127.416 22.7017 127.545 22.2922C127.675 21.8827 127.739 21.484 127.739 21.096V16.958Z" fill="#131325"/>
<path d="M121.307 20.2555C121.415 20.2555 121.501 20.2878 121.566 20.3525C121.631 20.4171 121.652 20.5033 121.631 20.6111C121.135 22.7879 120.456 24.372 119.594 25.3634C118.753 26.3332 117.611 26.8182 116.167 26.8182C115.413 26.8182 114.723 26.6134 114.098 26.2039C113.473 25.7944 112.934 25.2233 112.482 24.4905C112.029 23.7362 111.674 22.8525 111.415 21.8396C111.156 20.8051 111.027 19.6843 111.027 18.4774C111.027 16.9041 111.221 15.4924 111.609 14.2424C111.997 12.9708 112.557 11.9147 113.29 11.0742C114.411 9.78106 115.628 9.13449 116.943 9.13449C117.202 9.13449 117.557 9.16682 118.01 9.23148C118.463 9.27458 118.904 9.37157 119.335 9.52243C119.788 9.6733 120.176 9.87805 120.499 10.1367C120.823 10.3737 120.984 10.6755 120.984 11.0419L121.049 14.7273C121.049 14.8351 121.006 14.9213 120.919 14.9859C120.855 15.0506 120.769 15.0829 120.661 15.0829C120.467 15.0829 120.348 14.9967 120.305 14.8243C120.068 13.876 119.82 13.1001 119.562 12.4967C119.303 11.8932 119.023 11.4298 118.721 11.1065C118.441 10.7617 118.139 10.5354 117.816 10.4276C117.493 10.2983 117.148 10.2337 116.781 10.2337C116.243 10.2337 115.747 10.3953 115.294 10.7186C114.842 11.0203 114.454 11.4621 114.131 12.0441C113.807 12.6044 113.549 13.2941 113.355 14.1131C113.182 14.9105 113.096 15.7942 113.096 16.764C113.096 17.8416 113.193 18.833 113.387 19.7382C113.602 20.6434 113.893 21.4193 114.26 22.0659C114.626 22.7124 115.068 23.2189 115.585 23.5853C116.103 23.9302 116.674 24.1026 117.299 24.1026C118.139 24.1026 118.872 23.8116 119.497 23.2297C120.144 22.6262 120.65 21.7103 121.016 20.4818C121.06 20.3309 121.157 20.2555 121.307 20.2555Z" fill="#131325"/>
<path d="M111.652 24.4906C111.781 24.5122 111.889 24.5876 111.975 24.7169C112.062 24.8247 112.083 24.954 112.04 25.1048C111.997 25.2988 111.857 25.4174 111.62 25.4605C111.318 25.5251 110.898 25.6544 110.359 25.8484C109.82 26.0208 109.206 26.3225 108.516 26.7536C108.365 26.8614 108.236 26.8614 108.128 26.7536C108.042 26.6889 107.999 26.592 107.999 26.4626V24.5229C107.999 24.4152 107.945 24.3397 107.837 24.2966C107.73 24.2535 107.643 24.2859 107.579 24.3936C107.018 25.2557 106.458 25.8807 105.898 26.2687C105.359 26.6351 104.734 26.8183 104.023 26.8183C101.824 26.8183 100.725 24.8247 100.725 20.8375V12.82C100.725 11.9795 100.628 11.4083 100.434 11.1066C100.262 10.7833 99.9276 10.5678 99.4319 10.46C99.3026 10.4385 99.1948 10.3738 99.1086 10.2661C99.044 10.1583 99.0224 10.0398 99.044 9.91046C99.0871 9.65184 99.2595 9.52252 99.5612 9.52252H102.6C102.859 9.52252 102.988 9.65184 102.988 9.91046V20.8052C102.988 23.4561 103.656 24.7816 104.992 24.7816C105.337 24.7816 105.682 24.6846 106.027 24.4906C106.393 24.2966 106.717 24.0272 106.997 23.6824C107.298 23.3376 107.536 22.9388 107.708 22.4862C107.902 22.0336 107.999 21.5379 107.999 20.9991V12.8524C107.999 12.3998 107.977 12.0334 107.934 11.7532C107.891 11.4515 107.805 11.2144 107.676 11.042C107.568 10.8695 107.406 10.7402 107.191 10.654C106.997 10.5678 106.738 10.5032 106.415 10.46C106.113 10.4169 105.984 10.2445 106.027 9.94279C106.027 9.83503 106.07 9.73804 106.156 9.65183C106.264 9.56563 106.383 9.52252 106.512 9.52252H109.874C110.133 9.52252 110.262 9.65184 110.262 9.91046V22.4216C110.262 22.8311 110.305 23.1651 110.391 23.4238C110.477 23.6824 110.585 23.8871 110.715 24.038C110.865 24.1889 111.016 24.2966 111.167 24.3613C111.34 24.4259 111.501 24.469 111.652 24.4906Z" fill="#131325"/>
<path d="M100.391 21.872C100.391 22.4755 100.369 23.0789 100.326 23.6824C100.305 24.2643 100.208 24.7923 100.035 25.2665C99.8844 25.7191 99.6366 26.0963 99.2918 26.398C98.9469 26.6782 98.4728 26.8183 97.8693 26.8183C97.4382 26.8183 97.0611 26.6782 96.7378 26.398C96.4145 26.1178 96.1774 25.6437 96.0266 24.9755C95.9835 24.8462 95.8973 24.7708 95.768 24.7492C95.6386 24.7277 95.5309 24.7708 95.4447 24.8786C95.0136 25.5251 94.5502 26.0101 94.0545 26.3333C93.5588 26.6566 92.9877 26.8183 92.3411 26.8183C91.6084 26.8183 90.9295 26.6243 90.3044 26.2363C89.701 25.8484 89.1729 25.2988 88.7203 24.5876C88.2893 23.8764 87.9552 23.0251 87.7182 22.0336C87.4811 21.0422 87.3625 19.9431 87.3625 18.7361C87.3625 17.3999 87.5026 16.1499 87.7828 14.986C88.0846 13.8222 88.494 12.8093 89.0113 11.9472C89.5286 11.0851 90.1212 10.4062 90.7894 9.91047C91.479 9.41477 92.2118 9.16692 92.9877 9.16692C93.4403 9.16692 93.839 9.24235 94.1839 9.39322C94.5502 9.54408 94.9274 9.82426 95.3154 10.2338C95.4231 10.3415 95.5309 10.3738 95.6386 10.3307C95.7464 10.2661 95.8003 10.1691 95.8003 10.0398V5.15819C95.8003 4.77025 95.7572 4.44696 95.671 4.18833C95.5848 3.92971 95.477 3.72496 95.3477 3.57409C95.2184 3.42323 95.0675 3.31547 94.8951 3.25081C94.7442 3.1646 94.5934 3.11072 94.4425 3.08917C94.2916 3.06761 94.1731 3.00296 94.0869 2.89519C94.0222 2.76588 94.0114 2.62579 94.0545 2.47492C94.0976 2.28095 94.2377 2.16242 94.4748 2.11931C94.7765 2.07621 95.1968 1.95767 95.7356 1.7637C96.2744 1.56973 96.8887 1.25722 97.5783 0.826173C97.7077 0.696859 97.837 0.707636 97.9663 0.858503C98.0309 0.923159 98.0633 1.00937 98.0633 1.11713V22.163C98.0633 23.844 98.3434 24.6846 98.9038 24.6846C99.0762 24.6846 99.2163 24.5984 99.3241 24.426C99.4534 24.2535 99.5504 24.038 99.615 23.7794C99.7012 23.4992 99.7659 23.1975 99.809 22.8742C99.8521 22.5293 99.8737 22.1953 99.8737 21.872C99.8737 21.7211 99.9383 21.6349 100.068 21.6134C100.283 21.5703 100.391 21.6565 100.391 21.872ZM95.8003 13.9515C95.8003 13.4558 95.7248 12.9817 95.574 12.5291C95.4231 12.0765 95.2184 11.6778 94.9597 11.3329C94.7227 10.9881 94.4317 10.7187 94.0869 10.5247C93.7636 10.3092 93.4188 10.2014 93.0524 10.2014C92.5351 10.2014 92.0717 10.3738 91.6622 10.7187C91.2527 11.042 90.8971 11.5161 90.5954 12.1411C90.3152 12.7446 90.0889 13.4774 89.9165 14.3395C89.7656 15.2016 89.6902 16.1714 89.6902 17.249C89.6902 18.4129 89.7764 19.4689 89.9488 20.4172C90.1212 21.344 90.3691 22.1414 90.6924 22.8095C91.0157 23.4561 91.4036 23.9626 91.8562 24.329C92.3304 24.6954 92.8476 24.8786 93.408 24.8786C93.7313 24.8786 94.033 24.8031 94.3132 24.6523C94.6149 24.5014 94.8735 24.3074 95.089 24.0703C95.3046 23.8117 95.477 23.5315 95.6063 23.2298C95.7356 22.9281 95.8003 22.6263 95.8003 22.3246V13.9515Z" fill="#131325"/>
<path d="M87.601 18.8978C87.8596 18.8978 87.9889 19.0379 87.9889 19.3181L87.504 25.7838C87.504 25.9562 87.4285 26.107 87.2777 26.2364C87.1484 26.3657 86.9975 26.4303 86.8251 26.4303H73.4088C73.2794 26.4303 73.1609 26.3872 73.0531 26.301C72.9669 26.1933 72.9238 26.0747 72.9238 25.9454C72.9238 25.6868 73.0639 25.5359 73.3441 25.4928C73.7751 25.4282 74.1092 25.3419 74.3463 25.2342C74.6049 25.1049 74.7989 24.9109 74.9282 24.6523C75.0791 24.3936 75.176 24.0488 75.2192 23.6178C75.2623 23.1867 75.2838 22.6371 75.2838 21.969V5.93409C75.2838 5.28752 75.2623 4.75948 75.2192 4.34999C75.176 3.91895 75.0791 3.57411 74.9282 3.31548C74.7989 3.05685 74.6049 2.86288 74.3463 2.73357C74.0877 2.60425 73.7536 2.51804 73.3441 2.47494C73.0639 2.43184 72.9238 2.28097 72.9238 2.02234C72.9238 1.89303 72.9669 1.78527 73.0531 1.69906C73.1609 1.5913 73.2794 1.53741 73.4088 1.53741H86.0169C86.2324 1.53741 86.4156 1.61285 86.5664 1.76371C86.7173 1.89303 86.8035 2.06545 86.8251 2.28097L87.5363 8.06776C87.601 8.43415 87.4824 8.61735 87.1807 8.61735C86.9436 8.61735 86.8035 8.50959 86.7604 8.29406C86.4802 6.3328 85.963 4.95346 85.2086 4.15602C84.4759 3.35859 83.409 2.95987 82.0081 2.95987H78.9693C78.6029 2.95987 78.355 3.0353 78.2257 3.18617C78.0964 3.33703 78.0317 3.7142 78.0317 4.31766V11.236C78.0317 11.6023 78.161 11.9256 78.4197 12.2058C78.6998 12.4644 79.0231 12.5937 79.3895 12.5937H82.1051C82.6655 12.5937 83.1181 12.5614 83.4629 12.4968C83.8293 12.4321 84.1203 12.292 84.3358 12.0765C84.5513 11.8394 84.7129 11.5161 84.8207 11.1066C84.9285 10.6971 85.0255 10.1583 85.1117 9.49022C85.1548 9.29625 85.2625 9.19926 85.4349 9.19926C85.6505 9.19926 85.7582 9.3178 85.7582 9.55487V17.8633C85.7582 18.0788 85.6505 18.1866 85.4349 18.1866C85.2625 18.1866 85.1548 18.0896 85.1117 17.8956C85.0255 17.1628 84.9285 16.5594 84.8207 16.0852C84.7129 15.5895 84.5513 15.2016 84.3358 14.9214C84.1203 14.6412 83.8293 14.4472 83.4629 14.3395C83.1181 14.2102 82.6655 14.1455 82.1051 14.1455H79.3895C79.0231 14.1455 78.6998 14.2856 78.4197 14.5658C78.161 14.8244 78.0317 15.1369 78.0317 15.5033V23.2621C78.0317 23.6501 78.0748 23.9626 78.161 24.1997C78.2688 24.4367 78.4304 24.6199 78.646 24.7493C78.8615 24.8786 79.1417 24.9648 79.4865 25.0079C79.8313 25.0294 80.2516 25.0402 80.7473 25.0402H81.7172C82.7086 25.0402 83.5276 24.8893 84.1741 24.5876C84.8207 24.2859 85.3487 23.8764 85.7582 23.3591C86.1677 22.8203 86.4802 22.1953 86.6958 21.4841C86.9113 20.7729 87.0837 20.0185 87.213 19.2211C87.2561 19.0056 87.3854 18.8978 87.601 18.8978Z" fill="#131325"/>
<path d="M64.1948 17.4752C64.6259 17.8416 64.9923 18.1865 65.294 18.5097C65.5957 18.833 65.8328 19.1779 66.0052 19.5443C66.1992 19.8891 66.3393 20.2663 66.4255 20.6758C66.5117 21.0852 66.5548 21.5594 66.5548 22.0982C66.5548 22.7232 66.447 23.3267 66.2315 23.9086C66.0376 24.469 65.7682 24.9647 65.4233 25.3957C65.1 25.8268 64.7013 26.1716 64.2272 26.4302C63.7746 26.6888 63.2896 26.8182 62.7724 26.8182C62.4491 26.8182 62.0396 26.7966 61.5439 26.7535C61.0697 26.7319 60.6171 26.6565 60.1861 26.5272C59.7551 26.3979 59.3779 26.2039 59.0546 25.9453C58.7529 25.6651 58.602 25.2879 58.602 24.8138L58.5374 21.0314C58.5374 20.7943 58.6559 20.6758 58.893 20.6758C59.13 20.6758 59.2486 20.7727 59.2486 20.9667C59.3994 21.8288 59.5503 22.5831 59.7012 23.2297C59.8736 23.8547 60.0783 24.372 60.3154 24.7815C60.574 25.191 60.865 25.4927 61.1883 25.6867C61.5331 25.8806 61.9426 25.9776 62.4168 25.9776C63.1064 25.9776 63.656 25.7082 64.0655 25.1694C64.475 24.6306 64.6798 23.9733 64.6798 23.1974C64.6798 22.6155 64.5504 22.0874 64.2918 21.6133C64.0332 21.1391 63.6776 20.7296 63.225 20.3848L61.7702 19.2533C60.6495 18.3697 59.8305 17.486 59.3132 16.6024C58.796 15.6972 58.5374 14.7596 58.5374 13.7898C58.5374 12.3027 58.8822 11.1604 59.5719 10.363C60.2615 9.54399 61.156 9.13449 62.2551 9.13449C62.4922 9.13449 62.8047 9.1776 63.1927 9.26381C63.5806 9.32846 63.947 9.447 64.2918 9.61942C64.6582 9.77028 64.9707 9.97503 65.2293 10.2337C65.488 10.4707 65.6173 10.7509 65.6173 11.0742L65.6819 14.695C65.6819 14.9752 65.5526 15.1153 65.294 15.1153C65.0785 15.1153 64.9492 15.0075 64.9061 14.792C64.6259 13.1971 64.3026 12.0009 63.9362 11.2035C63.5914 10.3845 63.0202 9.97503 62.2228 9.97503C61.6624 9.97503 61.1883 10.1798 60.8003 10.5893C60.4124 10.9772 60.2184 11.6238 60.2184 12.529C60.2184 12.96 60.3154 13.4234 60.5094 13.9191C60.7034 14.3933 60.9943 14.7812 61.3823 15.0829L64.1948 17.4752Z" fill="#131325"/>
<path d="M53.0763 26.8182C52.2573 26.8182 51.4922 26.6027 50.781 26.1717C50.0698 25.7191 49.4555 25.094 48.9383 24.2966C48.421 23.4992 48.0115 22.5616 47.7098 21.484C47.4081 20.3849 47.2572 19.1779 47.2572 17.8632C47.2572 16.5701 47.3973 15.3847 47.6775 14.3071C47.9792 13.2295 48.3887 12.3135 48.906 11.5592C49.4448 10.8049 50.0913 10.223 50.8457 9.81346C51.6 9.38241 52.4298 9.16689 53.335 9.16689C54.1539 9.16689 54.9191 9.37163 55.6303 9.78113C56.3415 10.1906 56.9557 10.7725 57.473 11.5269C57.9903 12.2596 58.3997 13.1648 58.7015 14.2425C59.0032 15.2985 59.1541 16.4731 59.1541 17.7663C59.1541 19.081 59.0032 20.2879 58.7015 21.387C58.4213 22.4862 58.0118 23.4453 57.473 24.2643C56.9557 25.0617 56.32 25.6867 55.5656 26.1393C54.8113 26.5919 53.9815 26.8182 53.0763 26.8182ZM52.8177 10.2014C51.8694 10.2014 51.1043 10.7294 50.5224 11.7855C49.962 12.82 49.6818 14.2856 49.6818 16.1822C49.6818 16.5486 49.6926 17.0443 49.7142 17.6693C49.7573 18.2943 49.8219 18.9624 49.9081 19.6736C50.0159 20.3849 50.156 21.1069 50.3284 21.8396C50.5224 22.5509 50.7595 23.2082 51.0396 23.8117C51.3414 24.3936 51.697 24.8677 52.1065 25.2341C52.516 25.6005 53.0009 25.7837 53.5613 25.7837C54.5527 25.7837 55.3285 25.1695 55.8889 23.941C56.4493 22.691 56.7294 20.9668 56.7294 18.7684C56.7294 18.3805 56.7079 17.9063 56.6648 17.346C56.6217 16.7856 56.5462 16.1929 56.4385 15.5679C56.3307 14.9214 56.1799 14.2856 55.9859 13.6605C55.8135 13.014 55.5764 12.4428 55.2747 11.9471C54.9945 11.4299 54.6496 11.0096 54.2402 10.6863C53.8307 10.363 53.3565 10.2014 52.8177 10.2014Z" fill="#131325"/>
<path d="M47.9102 25.4604C48.1042 25.5251 48.2227 25.6652 48.2658 25.8807C48.2874 26.0316 48.2443 26.1609 48.1365 26.2686C48.0503 26.3764 47.9318 26.4303 47.7809 26.4303H42.867C42.7377 26.4303 42.6191 26.3872 42.5114 26.301C42.4252 26.1932 42.3821 26.0747 42.3821 25.9453V25.913C42.3821 25.6759 42.5114 25.5251 42.77 25.4604C43.0717 25.3958 43.3088 25.3095 43.4812 25.2018C43.6536 25.094 43.783 24.9432 43.8692 24.7492C43.9769 24.5337 44.0416 24.2643 44.0631 23.941C44.1062 23.6177 44.1278 23.2082 44.1278 22.7125V15.3093C44.1278 13.8222 43.9769 12.7446 43.6752 12.0764C43.3735 11.4083 42.8347 11.0742 42.0588 11.0742C41.7355 11.0742 41.4014 11.182 41.0566 11.3975C40.7333 11.5915 40.4316 11.8717 40.1514 12.2381C39.8712 12.5829 39.6341 12.9924 39.4402 13.4666C39.2677 13.9407 39.1815 14.4364 39.1815 14.9537V22.5185C39.1815 23.6392 39.2785 24.4044 39.4725 24.8138C39.688 25.2018 40.0975 25.4281 40.701 25.4927C40.9812 25.5358 41.1212 25.6867 41.1212 25.9453V25.9777C41.1212 26.107 41.0674 26.2147 40.9596 26.301C40.8734 26.3872 40.7656 26.4303 40.6363 26.4303H35.5284C35.3991 26.4303 35.2806 26.3764 35.1728 26.2686C35.0866 26.1609 35.0543 26.0316 35.0758 25.8807C35.0974 25.6652 35.2375 25.5358 35.4961 25.4927C35.7978 25.4496 36.0349 25.385 36.2073 25.2988C36.4013 25.2126 36.5414 25.0725 36.6276 24.8785C36.7353 24.6845 36.8108 24.4367 36.8539 24.1349C36.897 23.8117 36.9185 23.3914 36.9185 22.8741V15.2769C36.9185 13.9623 36.7677 12.9385 36.4659 12.2057C36.1642 11.4514 35.7224 11.0742 35.1405 11.0742C34.8387 11.0742 34.4939 11.1712 34.106 11.3652C33.7396 11.5376 33.3947 11.7962 33.0715 12.1411C32.7482 12.4644 32.4788 12.8631 32.2632 13.3372C32.0477 13.8114 31.94 14.3502 31.94 14.9537V23.456C31.94 24.1888 32.0369 24.6953 32.2309 24.9755C32.4249 25.2557 32.8021 25.4281 33.3624 25.4927C33.6426 25.5358 33.7827 25.7083 33.7827 26.01C33.7396 26.2902 33.5672 26.4303 33.2654 26.4303H28.1252C27.9959 26.4303 27.8773 26.3764 27.7696 26.2686C27.6834 26.1609 27.6511 26.0316 27.6726 25.8807C27.7157 25.6652 27.8558 25.5358 28.0929 25.4927C28.6748 25.4281 29.0627 25.2126 29.2567 24.8462C29.4507 24.4582 29.5477 23.7686 29.5477 22.7772V13.5312C29.5477 13.1217 29.5045 12.7877 29.4183 12.529C29.3321 12.2704 29.2244 12.0657 29.0951 11.9148C28.9657 11.7639 28.8149 11.6562 28.6425 11.5915C28.4916 11.5268 28.3407 11.4837 28.1899 11.4622C27.9097 11.4191 27.7696 11.2574 27.7696 10.9773C27.7696 10.7186 27.9097 10.5462 28.1899 10.46C28.4916 10.4169 28.9119 10.3091 29.4507 10.1367C30.011 9.94275 30.636 9.61947 31.3257 9.16687C31.4335 9.12376 31.5089 9.11299 31.552 9.13454C31.746 9.17764 31.843 9.28541 31.843 9.45782V11.3652C31.843 11.5161 31.9076 11.6131 32.0369 11.6562C32.1663 11.6993 32.2848 11.6669 32.3926 11.5592C33.1469 10.5893 33.7935 9.94275 34.3323 9.61947C34.8926 9.29618 35.453 9.13454 36.0133 9.13454C37.2849 9.13454 38.1794 9.9643 38.6966 11.6238C38.7397 11.7531 38.8259 11.8286 38.9552 11.8501C39.0846 11.8717 39.1923 11.8286 39.2785 11.7208C39.9251 10.8156 40.5717 10.1583 41.2182 9.74878C41.8864 9.33929 42.576 9.13454 43.2873 9.13454C44.3864 9.13454 45.1731 9.68412 45.6472 10.7833C46.1429 11.8609 46.3908 13.5635 46.3908 15.8912V23.1974C46.3908 23.5854 46.4447 23.9194 46.5524 24.1996C46.6602 24.4582 46.7895 24.6738 46.9404 24.8462C47.0912 25.0186 47.2529 25.1587 47.4253 25.2664C47.6193 25.3527 47.7809 25.4173 47.9102 25.4604Z" fill="#131325"/>
<path d="M28.0312 20.2555C28.1389 20.2555 28.2251 20.2986 28.2898 20.3848C28.376 20.471 28.3976 20.568 28.3544 20.6758C28.1389 21.5809 27.8803 22.4107 27.5786 23.165C27.2984 23.8978 26.9428 24.5444 26.5117 25.1047C26.0807 25.6436 25.5634 26.0638 24.96 26.3656C24.378 26.6673 23.6776 26.8182 22.8586 26.8182C22.0612 26.8182 21.3392 26.6134 20.6926 26.2039C20.0676 25.7944 19.5288 25.2233 19.0762 24.4905C18.6451 23.7362 18.3111 22.8418 18.074 21.8072C17.8369 20.7512 17.7184 19.5766 17.7184 18.2834C17.7184 16.9472 17.8477 15.7295 18.1063 14.6303C18.3865 13.5096 18.7637 12.5398 19.2378 11.7208C19.7335 10.9018 20.3262 10.266 21.0159 9.81339C21.7056 9.36079 22.4707 9.13449 23.3112 9.13449C24.0871 9.13449 24.7552 9.35001 25.3156 9.78106C25.8975 10.1906 26.3716 10.7078 26.738 11.3328C27.1044 11.9363 27.3846 12.5829 27.5786 13.2725C27.7725 13.9407 27.8803 14.5333 27.9019 15.0506C27.9234 15.3308 27.8695 15.5679 27.7402 15.7618C27.6109 15.9342 27.4493 16.0205 27.2553 16.0205H20.143C20.0137 16.0205 19.8952 16.0743 19.7874 16.1821C19.7012 16.2683 19.6689 16.3761 19.6904 16.5054C19.7335 17.1519 19.7766 17.7339 19.8197 18.2511C19.8628 18.7468 19.9275 19.221 20.0137 19.6736C20.0999 20.1046 20.2077 20.5249 20.337 20.9344C20.4879 21.3223 20.6818 21.7318 20.9189 22.1629C21.6517 23.5422 22.6431 24.2319 23.8931 24.2319C24.7983 24.2319 25.5742 23.8978 26.2208 23.2297C26.8673 22.54 27.363 21.6241 27.7079 20.4818C27.751 20.3309 27.8587 20.2555 28.0312 20.2555ZM24.1841 14.8243C24.572 14.8243 24.8199 14.695 24.9276 14.4364C25.0569 14.1562 25.1001 13.8437 25.0569 13.4988C24.8845 12.4428 24.6151 11.6777 24.2487 11.2035C23.8823 10.7294 23.322 10.4923 22.5677 10.4923C21.878 10.4923 21.2853 10.8156 20.7896 11.4621C20.2939 12.1087 19.9598 13.0462 19.7874 14.2747C19.7659 14.4256 19.7982 14.5549 19.8844 14.6627C19.9706 14.7704 20.0891 14.8243 20.24 14.8243H24.1841Z" fill="#131325"/>
<path d="M7.52354 1.53741C9.42014 1.53741 11.0473 1.8607 12.4051 2.50727C13.7629 3.13229 14.8729 4.00515 15.735 5.12587C16.6186 6.22504 17.2652 7.52896 17.6747 9.03762C18.1057 10.5247 18.3212 12.1412 18.3212 13.8869C18.3212 15.568 18.1165 17.1736 17.707 18.7038C17.3191 20.2125 16.694 21.5487 15.832 22.7126C14.9914 23.8548 13.9138 24.76 12.5991 25.4282C11.2844 26.0963 9.70032 26.4303 7.84682 26.4303H0.734561C0.605247 26.4303 0.486709 26.3872 0.378948 26.301C0.292738 26.1933 0.249634 26.0747 0.249634 25.9454C0.249634 25.6868 0.389724 25.5359 0.669904 25.4928C1.10095 25.4282 1.44579 25.3419 1.70441 25.2342C1.96304 25.1049 2.15701 24.9109 2.28633 24.6523C2.43719 24.3936 2.53418 24.0488 2.57728 23.6178C2.62039 23.1652 2.64194 22.594 2.64194 21.9043V5.93409C2.64194 5.24441 2.62039 4.69483 2.57728 4.28533C2.53418 3.85429 2.43719 3.52023 2.28633 3.28315C2.13546 3.02452 1.93071 2.84133 1.67209 2.73357C1.43501 2.62581 1.10095 2.5396 0.669904 2.47494C0.389724 2.43184 0.249634 2.28097 0.249634 2.02234C0.249634 1.89303 0.292738 1.78527 0.378948 1.69906C0.486709 1.5913 0.605247 1.53741 0.734561 1.53741H7.52354ZM5.38986 23.2621C5.38986 23.9303 5.46529 24.3936 5.61616 24.6523C5.78858 24.9109 6.14419 25.0402 6.683 25.0402C8.38563 25.0402 9.79731 24.76 10.918 24.1997C12.0387 23.6393 12.9224 22.8742 13.569 21.9043C14.2371 20.9129 14.7005 19.7491 14.9591 18.4129C15.2393 17.0766 15.3794 15.6326 15.3794 14.0809C15.3794 12.68 15.2285 11.3114 14.9268 9.97514C14.6466 8.6389 14.1724 7.45352 13.5043 6.41901C12.8362 5.36295 11.9525 4.52241 10.8534 3.89739C9.77576 3.25082 8.42874 2.92754 6.81231 2.92754C6.29506 2.92754 5.92867 3.0353 5.71314 3.25082C5.49762 3.46635 5.38986 3.88662 5.38986 4.51163V23.2621Z" fill="#131325"/>
</svg>
