<svg width="39" height="39" viewBox="0 0 39 39" fill="none" xmlns="http://www.w3.org/2000/svg">
<g filter="url(#filter0_i_2481_314)">
<g clip-path="url(#clip0_2481_314)">
<rect y="0.0555878" width="38.0757" height="38.0757" rx="7.33189" fill="#0FB7FF"/>
<g filter="url(#filter1_f_2481_314)">
<path d="M2.02271 18.9787C2.02271 28.3849 9.64792 36.0101 19.0541 36.0101C28.4603 36.0101 36.0855 28.3849 36.0855 18.9787C36.0855 9.57254 28.4603 1.94733 19.0541 1.94733C9.64792 1.94733 2.02271 9.57254 2.02271 18.9787Z" fill="#12FDC5"/>
</g>
<path d="M26.1869 23.2072H26.1553C26.1553 25.3541 25.5186 27.1431 24.2453 28.5743C22.9825 29.995 21.2987 30.7053 19.194 30.7053C17.0577 30.7053 15.3002 29.9897 13.9216 28.5585C12.5431 27.1273 11.8538 25.2593 11.8538 22.9547C11.8538 21.9234 12.0432 20.9762 12.422 20.1133C12.8009 19.2399 13.2902 18.5295 13.8901 17.9823C14.5004 17.4245 15.174 16.9931 15.9106 16.6879C16.6473 16.3827 17.3892 16.2301 18.1363 16.2301C18.652 16.2301 19.0361 16.2722 19.2887 16.3564L19.3676 16.2933C19.0308 16.0512 18.6573 15.746 18.2468 15.3777C17.8364 15.0094 17.3997 14.5726 16.9367 14.0675C16.4841 13.5519 16.1053 12.9994 15.8001 12.41C15.5054 11.8102 15.3581 11.2525 15.3581 10.7368C15.3581 10.2106 15.4528 9.75284 15.6423 9.36347C15.8422 8.96357 16.0948 8.64786 16.4 8.41635C16.7051 8.18483 17.0682 8.00066 17.4891 7.86386C17.9206 7.71653 18.3363 7.62181 18.7362 7.57972C19.1466 7.5271 19.5833 7.50079 20.0464 7.50079C20.6357 7.50079 21.1619 7.60077 21.6249 7.80072C22.0985 7.99014 22.4668 8.22166 22.7299 8.49527C23.0035 8.76889 23.235 9.09512 23.4244 9.47397C23.6139 9.84229 23.7402 10.1685 23.8033 10.4527C23.877 10.7368 23.9348 11.0262 23.9769 11.3209L23.235 11.5419C23.1193 10.6579 22.7615 9.89491 22.1616 9.25297C21.5723 8.60051 20.8409 8.27428 19.9674 8.27428C19.4728 8.27428 19.0729 8.43213 18.7678 8.74784C18.4731 9.06355 18.3258 9.53185 18.3258 10.1527C18.3258 10.6789 18.5205 11.2525 18.9098 11.8733C19.2992 12.4837 19.7833 13.073 20.3621 13.6413C20.9409 14.1991 21.5723 14.841 22.2563 15.5671C22.9404 16.2933 23.5718 17.0141 24.1506 17.7297C24.7294 18.4453 25.2135 19.2872 25.6028 20.2554C25.9922 21.2236 26.1869 22.2075 26.1869 23.2072ZM23.4718 24.5648C23.4718 23.5756 23.3403 22.5916 23.0772 21.6129C22.8141 20.6237 22.4458 19.8397 21.9722 19.2609L20.8199 17.8402C20.5673 17.5771 20.3147 17.3824 20.0622 17.2562C19.8201 17.1299 19.6307 17.0562 19.4939 17.0352C19.3571 17.0141 19.1729 17.0036 18.9414 17.0036C18.3836 17.0036 17.868 17.1404 17.3944 17.414C16.9209 17.6876 16.5315 18.0244 16.2263 18.4243C15.9317 18.8242 15.6738 19.2609 15.4528 19.7345C15.2424 20.208 15.0898 20.6395 14.9951 21.0289C14.9109 21.4077 14.8688 21.7287 14.8688 21.9918C14.8688 23.4651 15.0477 24.791 15.4055 25.9697C15.7738 27.1483 16.3052 28.0849 16.9998 28.7795C17.6944 29.4635 18.4941 29.8055 19.3992 29.8055C20.7146 29.8055 21.7196 29.3478 22.4142 28.4322C23.1193 27.5167 23.4718 26.2275 23.4718 24.5648Z" fill="white"/>
</g>
</g>
<defs>
<filter id="filter0_i_2481_314" x="0" y="0.0555878" width="38.6397" height="38.4987" filterUnits="userSpaceOnUse" color-interpolation-filters="sRGB">
<feFlood flood-opacity="0" result="BackgroundImageFix"/>
<feBlend mode="normal" in="SourceGraphic" in2="BackgroundImageFix" result="shape"/>
<feColorMatrix in="SourceAlpha" type="matrix" values="0 0 0 0 0 0 0 0 0 0 0 0 0 0 0 0 0 0 127 0" result="hardAlpha"/>
<feMorphology radius="0.70499" operator="erode" in="SourceAlpha" result="effect1_innerShadow_2481_314"/>
<feOffset dx="0.563992" dy="0.422994"/>
<feGaussianBlur stdDeviation="3.52495"/>
<feComposite in2="hardAlpha" operator="arithmetic" k2="-1" k3="1"/>
<feColorMatrix type="matrix" values="0 0 0 0 0.35 0 0 0 0 0.34125 0 0 0 0 0.34125 0 0 0 0.15 0"/>
<feBlend mode="normal" in2="shape" result="effect1_innerShadow_2481_314"/>
</filter>
<filter id="filter1_f_2481_314" x="-11.6685" y="-11.7439" width="61.4451" height="61.4451" filterUnits="userSpaceOnUse" color-interpolation-filters="sRGB">
<feFlood flood-opacity="0" result="BackgroundImageFix"/>
<feBlend mode="normal" in="SourceGraphic" in2="BackgroundImageFix" result="shape"/>
<feGaussianBlur stdDeviation="6.8456" result="effect1_foregroundBlur_2481_314"/>
</filter>
<clipPath id="clip0_2481_314">
<rect y="0.0555878" width="38.0757" height="38.0757" rx="7.33189" fill="white"/>
</clipPath>
</defs>
</svg>
